<svg xmlns="http://www.w3.org/2000/svg" width="20" height="20" fill="none"><path fill="#C53720" d="M19.96 15.5c-.06-.17-.42-.43-1.08-.76l-.77-.42a70.46 70.46 0 0 1-1.66-.94 18.88 18.88 0 0 0-.86-.55.93.93 0 0 0-.4-.1c-.2 0-.43.13-.72.4-.28.27-.54.56-.78.88-.23.32-.48.61-.75.88-.26.27-.48.4-.65.4a.97.97 0 0 1-.32-.06 3.34 3.34 0 0 1-.9-.49 14.93 14.93 0 0 1-3.34-2.47 14.92 14.92 0 0 1-2.64-3.6 5.12 5.12 0 0 1-.32-.64.96.96 0 0 1-.07-.32c0-.17.14-.39.4-.65.28-.27.57-.52.89-.75.31-.24.6-.5.88-.78.27-.29.4-.53.4-.71a.93.93 0 0 0-.1-.41c-.06-.14-.16-.3-.3-.5l-.25-.36a31.21 31.21 0 0 1-.94-1.66l-.42-.77C4.92.46 4.67.1 4.5.04A.8.8 0 0 0 4.2 0a5.63 5.63 0 0 0-1.97.44c-.47.2-.98.78-1.5 1.73a5.5 5.5 0 0 0-.68 3.4 11.63 11.63 0 0 0 .67 2.28l.26.69c.33.92.72 1.75 1.18 2.48a21.06 21.06 0 0 0 3.06 3.76c1.3 1.3 2.54 2.31 3.76 3.06.73.45 1.56.85 2.48 1.18a27.96 27.96 0 0 1 1.49.55 11.56 11.56 0 0 0 1.49.38 5.5 5.5 0 0 0 3.39-.67c.95-.53 1.53-1.04 1.73-1.51.1-.24.2-.56.3-.97.1-.42.14-.75.14-1a.8.8 0 0 0-.04-.3Z"/></svg>